<mxfile host="app.diagrams.net" agent="Mozilla/5.0 (Windows NT 10.0; Win64; x64) AppleWebKit/537.36 (KHTML, like Gecko) Chrome/130.0.0.0 Safari/537.36" version="24.8.4">
  <diagram name="Page-1" id="Mv92UGLd2jMCq1x-95h7">
    <mxGraphModel dx="1001" dy="520" grid="1" gridSize="14" guides="1" tooltips="1" connect="1" arrows="1" fold="1" page="1" pageScale="1" pageWidth="850" pageHeight="1100" math="0" shadow="0">
      <root>
        <mxCell id="0" />
        <mxCell id="1" parent="0" />
        <mxCell id="TuK--TFJjU0DLAUo9s5h-6" value="" style="rounded=0;whiteSpace=wrap;html=1;fontSize=14;" vertex="1" parent="1">
          <mxGeometry x="210" y="44" width="84" height="46" as="geometry" />
        </mxCell>
        <mxCell id="TuK--TFJjU0DLAUo9s5h-7" value="&lt;span style=&quot;font-size: 14px;&quot;&gt;n&lt;/span&gt;" style="text;html=1;align=center;verticalAlign=middle;whiteSpace=wrap;rounded=0;" vertex="1" parent="1">
          <mxGeometry x="222" y="14" width="60" height="30" as="geometry" />
        </mxCell>
        <mxCell id="TuK--TFJjU0DLAUo9s5h-8" value="&lt;span style=&quot;font-size: 14px;&quot;&gt;1&lt;/span&gt;" style="text;html=1;align=center;verticalAlign=middle;whiteSpace=wrap;rounded=0;" vertex="1" parent="1">
          <mxGeometry x="222" y="52" width="60" height="30" as="geometry" />
        </mxCell>
        <mxCell id="TuK--TFJjU0DLAUo9s5h-9" value="&lt;span style=&quot;font-size: 14px;&quot;&gt;0x78a27ff9cc&lt;/span&gt;" style="text;html=1;align=left;verticalAlign=middle;whiteSpace=wrap;rounded=0;" vertex="1" parent="1">
          <mxGeometry x="304" y="52" width="88" height="30" as="geometry" />
        </mxCell>
        <mxCell id="TuK--TFJjU0DLAUo9s5h-16" style="edgeStyle=orthogonalEdgeStyle;rounded=0;orthogonalLoop=1;jettySize=auto;html=1;exitX=1;exitY=0;exitDx=0;exitDy=0;entryX=0;entryY=0.5;entryDx=0;entryDy=0;" edge="1" parent="1" source="TuK--TFJjU0DLAUo9s5h-10" target="TuK--TFJjU0DLAUo9s5h-6">
          <mxGeometry relative="1" as="geometry">
            <Array as="points">
              <mxPoint x="98" y="114" />
              <mxPoint x="98" y="67" />
            </Array>
          </mxGeometry>
        </mxCell>
        <mxCell id="TuK--TFJjU0DLAUo9s5h-10" value="" style="rounded=0;whiteSpace=wrap;html=1;fontSize=14;" vertex="1" parent="1">
          <mxGeometry x="14" y="114" width="112" height="46" as="geometry" />
        </mxCell>
        <mxCell id="TuK--TFJjU0DLAUo9s5h-11" value="&lt;span style=&quot;font-size: 14px;&quot;&gt;*p&lt;/span&gt;" style="text;html=1;align=center;verticalAlign=middle;whiteSpace=wrap;rounded=0;" vertex="1" parent="1">
          <mxGeometry x="40" y="84" width="60" height="30" as="geometry" />
        </mxCell>
        <mxCell id="TuK--TFJjU0DLAUo9s5h-12" value="&lt;span style=&quot;font-size: 14px; text-align: left;&quot;&gt;0x78a27ff9cc&lt;/span&gt;" style="text;html=1;align=center;verticalAlign=middle;whiteSpace=wrap;rounded=0;" vertex="1" parent="1">
          <mxGeometry x="20" y="122" width="100" height="30" as="geometry" />
        </mxCell>
        <mxCell id="TuK--TFJjU0DLAUo9s5h-13" value="&lt;span style=&quot;font-size: 14px;&quot;&gt;0x78a27ff9c0&lt;/span&gt;" style="text;html=1;align=left;verticalAlign=middle;whiteSpace=wrap;rounded=0;" vertex="1" parent="1">
          <mxGeometry x="140" y="122" width="98" height="30" as="geometry" />
        </mxCell>
        <mxCell id="TuK--TFJjU0DLAUo9s5h-19" value="" style="rounded=0;whiteSpace=wrap;html=1;fontSize=14;" vertex="1" parent="1">
          <mxGeometry x="577" y="226" width="112" height="46" as="geometry" />
        </mxCell>
        <mxCell id="TuK--TFJjU0DLAUo9s5h-20" value="&lt;div style=&quot;text-align: left;&quot;&gt;&lt;span style=&quot;background-color: initial; font-size: 14px;&quot;&gt;(junk value)&lt;/span&gt;&lt;/div&gt;" style="text;html=1;align=center;verticalAlign=middle;whiteSpace=wrap;rounded=0;" vertex="1" parent="1">
          <mxGeometry x="583" y="234" width="100" height="30" as="geometry" />
        </mxCell>
        <mxCell id="TuK--TFJjU0DLAUo9s5h-21" value="&lt;span style=&quot;font-size: 14px;&quot;&gt;new int&lt;/span&gt;" style="text;html=1;align=center;verticalAlign=middle;whiteSpace=wrap;rounded=0;" vertex="1" parent="1">
          <mxGeometry x="603" y="196" width="60" height="30" as="geometry" />
        </mxCell>
        <mxCell id="TuK--TFJjU0DLAUo9s5h-22" value="&lt;span style=&quot;font-size: 14px;&quot;&gt;0x1c1d1197810&lt;/span&gt;" style="text;html=1;align=left;verticalAlign=middle;whiteSpace=wrap;rounded=0;" vertex="1" parent="1">
          <mxGeometry x="699" y="234" width="88" height="30" as="geometry" />
        </mxCell>
        <mxCell id="TuK--TFJjU0DLAUo9s5h-27" style="edgeStyle=orthogonalEdgeStyle;rounded=0;orthogonalLoop=1;jettySize=auto;html=1;exitX=1;exitY=0;exitDx=0;exitDy=0;entryX=0;entryY=0.5;entryDx=0;entryDy=0;" edge="1" parent="1" source="TuK--TFJjU0DLAUo9s5h-23" target="TuK--TFJjU0DLAUo9s5h-19">
          <mxGeometry relative="1" as="geometry">
            <Array as="points">
              <mxPoint x="479" y="294" />
              <mxPoint x="479" y="249" />
            </Array>
          </mxGeometry>
        </mxCell>
        <mxCell id="TuK--TFJjU0DLAUo9s5h-23" value="" style="rounded=0;whiteSpace=wrap;html=1;fontSize=14;" vertex="1" parent="1">
          <mxGeometry x="395" y="294" width="112" height="46" as="geometry" />
        </mxCell>
        <mxCell id="TuK--TFJjU0DLAUo9s5h-24" value="&lt;div style=&quot;text-align: left;&quot;&gt;&lt;span style=&quot;font-size: 14px;&quot;&gt;0x1c1d1197810&lt;/span&gt;&lt;/div&gt;" style="text;html=1;align=center;verticalAlign=middle;whiteSpace=wrap;rounded=0;" vertex="1" parent="1">
          <mxGeometry x="401" y="302" width="100" height="30" as="geometry" />
        </mxCell>
        <mxCell id="TuK--TFJjU0DLAUo9s5h-25" value="&lt;span style=&quot;font-size: 14px;&quot;&gt;*q&lt;/span&gt;" style="text;html=1;align=center;verticalAlign=middle;whiteSpace=wrap;rounded=0;" vertex="1" parent="1">
          <mxGeometry x="421" y="264" width="60" height="30" as="geometry" />
        </mxCell>
        <mxCell id="TuK--TFJjU0DLAUo9s5h-26" value="&lt;span style=&quot;font-size: 14px;&quot;&gt;0x78a27ff9b8&lt;/span&gt;" style="text;html=1;align=left;verticalAlign=middle;whiteSpace=wrap;rounded=0;" vertex="1" parent="1">
          <mxGeometry x="517" y="302" width="88" height="30" as="geometry" />
        </mxCell>
        <mxCell id="TuK--TFJjU0DLAUo9s5h-29" value="" style="rounded=0;whiteSpace=wrap;html=1;fontSize=14;" vertex="1" parent="1">
          <mxGeometry x="577" y="422" width="112" height="46" as="geometry" />
        </mxCell>
        <mxCell id="TuK--TFJjU0DLAUo9s5h-30" value="&lt;div style=&quot;text-align: left;&quot;&gt;&lt;span style=&quot;background-color: initial; font-size: 14px;&quot;&gt;2&lt;/span&gt;&lt;/div&gt;" style="text;html=1;align=center;verticalAlign=middle;whiteSpace=wrap;rounded=0;" vertex="1" parent="1">
          <mxGeometry x="583" y="430" width="100" height="30" as="geometry" />
        </mxCell>
        <mxCell id="TuK--TFJjU0DLAUo9s5h-31" value="&lt;span style=&quot;font-size: 14px;&quot;&gt;new int&lt;/span&gt;" style="text;html=1;align=center;verticalAlign=middle;whiteSpace=wrap;rounded=0;" vertex="1" parent="1">
          <mxGeometry x="603" y="392" width="60" height="30" as="geometry" />
        </mxCell>
        <mxCell id="TuK--TFJjU0DLAUo9s5h-32" value="&lt;span style=&quot;font-size: 14px;&quot;&gt;0x1c1d1197810&lt;/span&gt;" style="text;html=1;align=left;verticalAlign=middle;whiteSpace=wrap;rounded=0;" vertex="1" parent="1">
          <mxGeometry x="699" y="430" width="88" height="30" as="geometry" />
        </mxCell>
        <mxCell id="TuK--TFJjU0DLAUo9s5h-33" style="edgeStyle=orthogonalEdgeStyle;rounded=0;orthogonalLoop=1;jettySize=auto;html=1;exitX=1;exitY=0;exitDx=0;exitDy=0;entryX=0;entryY=0.5;entryDx=0;entryDy=0;" edge="1" parent="1" source="TuK--TFJjU0DLAUo9s5h-34" target="TuK--TFJjU0DLAUo9s5h-29">
          <mxGeometry relative="1" as="geometry">
            <Array as="points">
              <mxPoint x="479" y="490" />
              <mxPoint x="479" y="445" />
            </Array>
          </mxGeometry>
        </mxCell>
        <mxCell id="TuK--TFJjU0DLAUo9s5h-34" value="" style="rounded=0;whiteSpace=wrap;html=1;fontSize=14;" vertex="1" parent="1">
          <mxGeometry x="395" y="490" width="112" height="46" as="geometry" />
        </mxCell>
        <mxCell id="TuK--TFJjU0DLAUo9s5h-35" value="&lt;div style=&quot;text-align: left;&quot;&gt;&lt;span style=&quot;font-size: 14px;&quot;&gt;0x1c1d1197810&lt;/span&gt;&lt;/div&gt;" style="text;html=1;align=center;verticalAlign=middle;whiteSpace=wrap;rounded=0;" vertex="1" parent="1">
          <mxGeometry x="401" y="498" width="100" height="30" as="geometry" />
        </mxCell>
        <mxCell id="TuK--TFJjU0DLAUo9s5h-36" value="&lt;span style=&quot;font-size: 14px;&quot;&gt;*q&lt;/span&gt;" style="text;html=1;align=center;verticalAlign=middle;whiteSpace=wrap;rounded=0;" vertex="1" parent="1">
          <mxGeometry x="421" y="460" width="60" height="30" as="geometry" />
        </mxCell>
        <mxCell id="TuK--TFJjU0DLAUo9s5h-37" value="&lt;span style=&quot;font-size: 14px;&quot;&gt;0x78a27ff9b8&lt;/span&gt;" style="text;html=1;align=left;verticalAlign=middle;whiteSpace=wrap;rounded=0;" vertex="1" parent="1">
          <mxGeometry x="517" y="498" width="88" height="30" as="geometry" />
        </mxCell>
        <mxCell id="TuK--TFJjU0DLAUo9s5h-39" value="" style="rounded=0;whiteSpace=wrap;html=1;fontSize=14;" vertex="1" parent="1">
          <mxGeometry x="222" y="632" width="112" height="46" as="geometry" />
        </mxCell>
        <mxCell id="TuK--TFJjU0DLAUo9s5h-40" value="&lt;div style=&quot;text-align: left;&quot;&gt;&lt;span style=&quot;font-size: 14px;&quot;&gt;(junk value)&lt;/span&gt;&lt;/div&gt;" style="text;html=1;align=center;verticalAlign=middle;whiteSpace=wrap;rounded=0;" vertex="1" parent="1">
          <mxGeometry x="228" y="640" width="100" height="30" as="geometry" />
        </mxCell>
        <mxCell id="TuK--TFJjU0DLAUo9s5h-41" value="&lt;span style=&quot;font-size: 14px;&quot;&gt;new int&lt;/span&gt;" style="text;html=1;align=center;verticalAlign=middle;whiteSpace=wrap;rounded=0;" vertex="1" parent="1">
          <mxGeometry x="248" y="602" width="60" height="30" as="geometry" />
        </mxCell>
        <mxCell id="TuK--TFJjU0DLAUo9s5h-42" value="&lt;span style=&quot;font-size: 14px;&quot;&gt;0x1c1d1197810&lt;/span&gt;" style="text;html=1;align=left;verticalAlign=middle;whiteSpace=wrap;rounded=0;" vertex="1" parent="1">
          <mxGeometry x="344" y="640" width="88" height="30" as="geometry" />
        </mxCell>
        <mxCell id="TuK--TFJjU0DLAUo9s5h-43" style="edgeStyle=orthogonalEdgeStyle;rounded=0;orthogonalLoop=1;jettySize=auto;html=1;exitX=1;exitY=0;exitDx=0;exitDy=0;entryX=0;entryY=0.5;entryDx=0;entryDy=0;" edge="1" parent="1" source="TuK--TFJjU0DLAUo9s5h-44" target="TuK--TFJjU0DLAUo9s5h-39">
          <mxGeometry relative="1" as="geometry">
            <Array as="points">
              <mxPoint x="124" y="700" />
              <mxPoint x="124" y="655" />
            </Array>
          </mxGeometry>
        </mxCell>
        <mxCell id="TuK--TFJjU0DLAUo9s5h-44" value="" style="rounded=0;whiteSpace=wrap;html=1;fontSize=14;" vertex="1" parent="1">
          <mxGeometry x="40" y="700" width="112" height="46" as="geometry" />
        </mxCell>
        <mxCell id="TuK--TFJjU0DLAUo9s5h-45" value="&lt;div style=&quot;text-align: left;&quot;&gt;&lt;span style=&quot;font-size: 14px;&quot;&gt;0x1c1d1197810&lt;/span&gt;&lt;/div&gt;" style="text;html=1;align=center;verticalAlign=middle;whiteSpace=wrap;rounded=0;" vertex="1" parent="1">
          <mxGeometry x="46" y="708" width="100" height="30" as="geometry" />
        </mxCell>
        <mxCell id="TuK--TFJjU0DLAUo9s5h-46" value="&lt;span style=&quot;font-size: 14px;&quot;&gt;*q&lt;/span&gt;" style="text;html=1;align=center;verticalAlign=middle;whiteSpace=wrap;rounded=0;" vertex="1" parent="1">
          <mxGeometry x="66" y="670" width="60" height="30" as="geometry" />
        </mxCell>
        <mxCell id="TuK--TFJjU0DLAUo9s5h-47" value="&lt;span style=&quot;font-size: 14px;&quot;&gt;0x78a27ff9b8&lt;/span&gt;" style="text;html=1;align=left;verticalAlign=middle;whiteSpace=wrap;rounded=0;" vertex="1" parent="1">
          <mxGeometry x="162" y="708" width="88" height="30" as="geometry" />
        </mxCell>
        <mxCell id="TuK--TFJjU0DLAUo9s5h-59" value="" style="rounded=0;whiteSpace=wrap;html=1;fontSize=14;" vertex="1" parent="1">
          <mxGeometry x="613" y="828" width="112" height="46" as="geometry" />
        </mxCell>
        <mxCell id="TuK--TFJjU0DLAUo9s5h-60" value="&lt;div style=&quot;text-align: left;&quot;&gt;&lt;span style=&quot;background-color: initial; font-size: 14px;&quot;&gt;(junk value)&lt;/span&gt;&lt;/div&gt;" style="text;html=1;align=center;verticalAlign=middle;whiteSpace=wrap;rounded=0;" vertex="1" parent="1">
          <mxGeometry x="619" y="836" width="100" height="30" as="geometry" />
        </mxCell>
        <mxCell id="TuK--TFJjU0DLAUo9s5h-61" value="&lt;span style=&quot;font-size: 14px;&quot;&gt;new int&lt;/span&gt;" style="text;html=1;align=center;verticalAlign=middle;whiteSpace=wrap;rounded=0;" vertex="1" parent="1">
          <mxGeometry x="639" y="798" width="60" height="30" as="geometry" />
        </mxCell>
        <mxCell id="TuK--TFJjU0DLAUo9s5h-62" value="&lt;span style=&quot;font-size: 14px;&quot;&gt;0x1c1d1197810&lt;/span&gt;" style="text;html=1;align=left;verticalAlign=middle;whiteSpace=wrap;rounded=0;" vertex="1" parent="1">
          <mxGeometry x="735" y="836" width="88" height="30" as="geometry" />
        </mxCell>
        <mxCell id="TuK--TFJjU0DLAUo9s5h-63" style="edgeStyle=orthogonalEdgeStyle;rounded=0;orthogonalLoop=1;jettySize=auto;html=1;exitX=1;exitY=0;exitDx=0;exitDy=0;entryX=0;entryY=0.5;entryDx=0;entryDy=0;" edge="1" parent="1" source="TuK--TFJjU0DLAUo9s5h-64" target="TuK--TFJjU0DLAUo9s5h-59">
          <mxGeometry relative="1" as="geometry">
            <Array as="points">
              <mxPoint x="515" y="896" />
              <mxPoint x="515" y="851" />
            </Array>
          </mxGeometry>
        </mxCell>
        <mxCell id="TuK--TFJjU0DLAUo9s5h-64" value="" style="rounded=0;whiteSpace=wrap;html=1;fontSize=14;" vertex="1" parent="1">
          <mxGeometry x="431" y="896" width="112" height="46" as="geometry" />
        </mxCell>
        <mxCell id="TuK--TFJjU0DLAUo9s5h-65" value="&lt;div style=&quot;text-align: left;&quot;&gt;&lt;span style=&quot;font-size: 14px;&quot;&gt;0x1c1d1197810&lt;/span&gt;&lt;/div&gt;" style="text;html=1;align=center;verticalAlign=middle;whiteSpace=wrap;rounded=0;" vertex="1" parent="1">
          <mxGeometry x="437" y="904" width="100" height="30" as="geometry" />
        </mxCell>
        <mxCell id="TuK--TFJjU0DLAUo9s5h-66" value="&lt;span style=&quot;font-size: 14px;&quot;&gt;*q&lt;/span&gt;" style="text;html=1;align=center;verticalAlign=middle;whiteSpace=wrap;rounded=0;" vertex="1" parent="1">
          <mxGeometry x="457" y="866" width="60" height="30" as="geometry" />
        </mxCell>
        <mxCell id="TuK--TFJjU0DLAUo9s5h-67" value="&lt;span style=&quot;font-size: 14px;&quot;&gt;0x78a27ff9b8&lt;/span&gt;" style="text;html=1;align=left;verticalAlign=middle;whiteSpace=wrap;rounded=0;" vertex="1" parent="1">
          <mxGeometry x="553" y="904" width="88" height="30" as="geometry" />
        </mxCell>
        <mxCell id="TuK--TFJjU0DLAUo9s5h-73" style="edgeStyle=orthogonalEdgeStyle;rounded=0;orthogonalLoop=1;jettySize=auto;html=1;exitX=1;exitY=0;exitDx=0;exitDy=0;" edge="1" parent="1" source="TuK--TFJjU0DLAUo9s5h-68">
          <mxGeometry relative="1" as="geometry">
            <mxPoint x="671" y="882" as="targetPoint" />
            <Array as="points">
              <mxPoint x="671" y="980" />
            </Array>
          </mxGeometry>
        </mxCell>
        <mxCell id="TuK--TFJjU0DLAUo9s5h-68" value="" style="rounded=0;whiteSpace=wrap;html=1;fontSize=14;" vertex="1" parent="1">
          <mxGeometry x="613" y="980" width="112" height="46" as="geometry" />
        </mxCell>
        <mxCell id="TuK--TFJjU0DLAUo9s5h-69" value="&lt;div style=&quot;text-align: left;&quot;&gt;&lt;span style=&quot;font-size: 14px;&quot;&gt;0x1c1d1197810&lt;/span&gt;&lt;/div&gt;" style="text;html=1;align=center;verticalAlign=middle;whiteSpace=wrap;rounded=0;" vertex="1" parent="1">
          <mxGeometry x="619" y="988" width="100" height="30" as="geometry" />
        </mxCell>
        <mxCell id="TuK--TFJjU0DLAUo9s5h-70" value="&lt;span style=&quot;font-size: 14px;&quot;&gt;0x78a27ff9b0&lt;/span&gt;" style="text;html=1;align=left;verticalAlign=middle;whiteSpace=wrap;rounded=0;" vertex="1" parent="1">
          <mxGeometry x="735" y="988" width="88" height="30" as="geometry" />
        </mxCell>
        <mxCell id="TuK--TFJjU0DLAUo9s5h-71" value="&lt;span style=&quot;font-size: 14px;&quot;&gt;*r&lt;/span&gt;" style="text;html=1;align=center;verticalAlign=middle;whiteSpace=wrap;rounded=0;" vertex="1" parent="1">
          <mxGeometry x="629" y="950" width="60" height="30" as="geometry" />
        </mxCell>
        <mxCell id="TuK--TFJjU0DLAUo9s5h-75" value="" style="rounded=0;whiteSpace=wrap;html=1;fontSize=14;" vertex="1" parent="1">
          <mxGeometry x="607" y="1136" width="112" height="46" as="geometry" />
        </mxCell>
        <mxCell id="TuK--TFJjU0DLAUo9s5h-76" value="&lt;div style=&quot;text-align: left;&quot;&gt;&lt;span style=&quot;background-color: initial; font-size: 14px;&quot;&gt;3&lt;/span&gt;&lt;/div&gt;" style="text;html=1;align=center;verticalAlign=middle;whiteSpace=wrap;rounded=0;" vertex="1" parent="1">
          <mxGeometry x="613" y="1144" width="100" height="30" as="geometry" />
        </mxCell>
        <mxCell id="TuK--TFJjU0DLAUo9s5h-77" value="&lt;span style=&quot;font-size: 14px;&quot;&gt;new int&lt;/span&gt;" style="text;html=1;align=center;verticalAlign=middle;whiteSpace=wrap;rounded=0;" vertex="1" parent="1">
          <mxGeometry x="633" y="1106" width="60" height="30" as="geometry" />
        </mxCell>
        <mxCell id="TuK--TFJjU0DLAUo9s5h-78" value="&lt;span style=&quot;font-size: 14px;&quot;&gt;0x1c1d1197810&lt;/span&gt;" style="text;html=1;align=left;verticalAlign=middle;whiteSpace=wrap;rounded=0;" vertex="1" parent="1">
          <mxGeometry x="729" y="1144" width="88" height="30" as="geometry" />
        </mxCell>
        <mxCell id="TuK--TFJjU0DLAUo9s5h-79" style="edgeStyle=orthogonalEdgeStyle;rounded=0;orthogonalLoop=1;jettySize=auto;html=1;exitX=1;exitY=0;exitDx=0;exitDy=0;entryX=0;entryY=0.5;entryDx=0;entryDy=0;" edge="1" parent="1" source="TuK--TFJjU0DLAUo9s5h-80" target="TuK--TFJjU0DLAUo9s5h-75">
          <mxGeometry relative="1" as="geometry">
            <Array as="points">
              <mxPoint x="509" y="1204" />
              <mxPoint x="509" y="1159" />
            </Array>
          </mxGeometry>
        </mxCell>
        <mxCell id="TuK--TFJjU0DLAUo9s5h-80" value="" style="rounded=0;whiteSpace=wrap;html=1;fontSize=14;" vertex="1" parent="1">
          <mxGeometry x="425" y="1204" width="112" height="46" as="geometry" />
        </mxCell>
        <mxCell id="TuK--TFJjU0DLAUo9s5h-81" value="&lt;div style=&quot;text-align: left;&quot;&gt;&lt;span style=&quot;font-size: 14px;&quot;&gt;0x1c1d1197810&lt;/span&gt;&lt;/div&gt;" style="text;html=1;align=center;verticalAlign=middle;whiteSpace=wrap;rounded=0;" vertex="1" parent="1">
          <mxGeometry x="431" y="1212" width="100" height="30" as="geometry" />
        </mxCell>
        <mxCell id="TuK--TFJjU0DLAUo9s5h-82" value="&lt;span style=&quot;font-size: 14px;&quot;&gt;*q&lt;/span&gt;" style="text;html=1;align=center;verticalAlign=middle;whiteSpace=wrap;rounded=0;" vertex="1" parent="1">
          <mxGeometry x="451" y="1174" width="60" height="30" as="geometry" />
        </mxCell>
        <mxCell id="TuK--TFJjU0DLAUo9s5h-83" value="&lt;span style=&quot;font-size: 14px;&quot;&gt;0x78a27ff9b8&lt;/span&gt;" style="text;html=1;align=left;verticalAlign=middle;whiteSpace=wrap;rounded=0;" vertex="1" parent="1">
          <mxGeometry x="547" y="1212" width="88" height="30" as="geometry" />
        </mxCell>
        <mxCell id="TuK--TFJjU0DLAUo9s5h-84" style="edgeStyle=orthogonalEdgeStyle;rounded=0;orthogonalLoop=1;jettySize=auto;html=1;exitX=1;exitY=0;exitDx=0;exitDy=0;" edge="1" parent="1" source="TuK--TFJjU0DLAUo9s5h-85">
          <mxGeometry relative="1" as="geometry">
            <mxPoint x="665" y="1190" as="targetPoint" />
            <Array as="points">
              <mxPoint x="665" y="1288" />
            </Array>
          </mxGeometry>
        </mxCell>
        <mxCell id="TuK--TFJjU0DLAUo9s5h-85" value="" style="rounded=0;whiteSpace=wrap;html=1;fontSize=14;" vertex="1" parent="1">
          <mxGeometry x="607" y="1288" width="112" height="46" as="geometry" />
        </mxCell>
        <mxCell id="TuK--TFJjU0DLAUo9s5h-86" value="&lt;div style=&quot;text-align: left;&quot;&gt;&lt;span style=&quot;font-size: 14px;&quot;&gt;0x1c1d1197810&lt;/span&gt;&lt;/div&gt;" style="text;html=1;align=center;verticalAlign=middle;whiteSpace=wrap;rounded=0;" vertex="1" parent="1">
          <mxGeometry x="613" y="1296" width="100" height="30" as="geometry" />
        </mxCell>
        <mxCell id="TuK--TFJjU0DLAUo9s5h-87" value="&lt;span style=&quot;font-size: 14px;&quot;&gt;0x78a27ff9b0&lt;/span&gt;" style="text;html=1;align=left;verticalAlign=middle;whiteSpace=wrap;rounded=0;" vertex="1" parent="1">
          <mxGeometry x="729" y="1296" width="88" height="30" as="geometry" />
        </mxCell>
        <mxCell id="TuK--TFJjU0DLAUo9s5h-88" value="&lt;span style=&quot;font-size: 14px;&quot;&gt;*r&lt;/span&gt;" style="text;html=1;align=center;verticalAlign=middle;whiteSpace=wrap;rounded=0;" vertex="1" parent="1">
          <mxGeometry x="623" y="1258" width="60" height="30" as="geometry" />
        </mxCell>
        <mxCell id="TuK--TFJjU0DLAUo9s5h-90" value="" style="rounded=0;whiteSpace=wrap;html=1;fontSize=14;" vertex="1" parent="1">
          <mxGeometry x="243" y="1542" width="112" height="46" as="geometry" />
        </mxCell>
        <mxCell id="TuK--TFJjU0DLAUo9s5h-91" value="&lt;div style=&quot;text-align: left;&quot;&gt;&lt;span style=&quot;background-color: initial; font-size: 14px;&quot;&gt;4&lt;/span&gt;&lt;/div&gt;" style="text;html=1;align=center;verticalAlign=middle;whiteSpace=wrap;rounded=0;" vertex="1" parent="1">
          <mxGeometry x="249" y="1550" width="100" height="30" as="geometry" />
        </mxCell>
        <mxCell id="TuK--TFJjU0DLAUo9s5h-92" value="&lt;span style=&quot;font-size: 14px;&quot;&gt;new int&lt;/span&gt;" style="text;html=1;align=center;verticalAlign=middle;whiteSpace=wrap;rounded=0;" vertex="1" parent="1">
          <mxGeometry x="269" y="1512" width="60" height="30" as="geometry" />
        </mxCell>
        <mxCell id="TuK--TFJjU0DLAUo9s5h-93" value="&lt;span style=&quot;font-size: 14px;&quot;&gt;0x1c1d1197810&lt;/span&gt;" style="text;html=1;align=left;verticalAlign=middle;whiteSpace=wrap;rounded=0;" vertex="1" parent="1">
          <mxGeometry x="365" y="1550" width="88" height="30" as="geometry" />
        </mxCell>
        <mxCell id="TuK--TFJjU0DLAUo9s5h-94" style="edgeStyle=orthogonalEdgeStyle;rounded=0;orthogonalLoop=1;jettySize=auto;html=1;exitX=1;exitY=0;exitDx=0;exitDy=0;entryX=0;entryY=0.5;entryDx=0;entryDy=0;" edge="1" parent="1" source="TuK--TFJjU0DLAUo9s5h-95" target="TuK--TFJjU0DLAUo9s5h-90">
          <mxGeometry relative="1" as="geometry">
            <Array as="points">
              <mxPoint x="145" y="1610" />
              <mxPoint x="145" y="1565" />
            </Array>
          </mxGeometry>
        </mxCell>
        <mxCell id="TuK--TFJjU0DLAUo9s5h-95" value="" style="rounded=0;whiteSpace=wrap;html=1;fontSize=14;" vertex="1" parent="1">
          <mxGeometry x="61" y="1610" width="112" height="46" as="geometry" />
        </mxCell>
        <mxCell id="TuK--TFJjU0DLAUo9s5h-96" value="&lt;div style=&quot;text-align: left;&quot;&gt;&lt;span style=&quot;font-size: 14px;&quot;&gt;0x1c1d1197810&lt;/span&gt;&lt;/div&gt;" style="text;html=1;align=center;verticalAlign=middle;whiteSpace=wrap;rounded=0;" vertex="1" parent="1">
          <mxGeometry x="67" y="1618" width="100" height="30" as="geometry" />
        </mxCell>
        <mxCell id="TuK--TFJjU0DLAUo9s5h-97" value="&lt;span style=&quot;font-size: 14px;&quot;&gt;*q&lt;/span&gt;" style="text;html=1;align=center;verticalAlign=middle;whiteSpace=wrap;rounded=0;" vertex="1" parent="1">
          <mxGeometry x="87" y="1580" width="60" height="30" as="geometry" />
        </mxCell>
        <mxCell id="TuK--TFJjU0DLAUo9s5h-98" value="&lt;span style=&quot;font-size: 14px;&quot;&gt;0x78a27ff9b8&lt;/span&gt;" style="text;html=1;align=left;verticalAlign=middle;whiteSpace=wrap;rounded=0;" vertex="1" parent="1">
          <mxGeometry x="183" y="1618" width="88" height="30" as="geometry" />
        </mxCell>
        <mxCell id="TuK--TFJjU0DLAUo9s5h-99" style="edgeStyle=orthogonalEdgeStyle;rounded=0;orthogonalLoop=1;jettySize=auto;html=1;exitX=1;exitY=0;exitDx=0;exitDy=0;" edge="1" parent="1" source="TuK--TFJjU0DLAUo9s5h-100">
          <mxGeometry relative="1" as="geometry">
            <mxPoint x="301" y="1596" as="targetPoint" />
            <Array as="points">
              <mxPoint x="301" y="1694" />
            </Array>
          </mxGeometry>
        </mxCell>
        <mxCell id="TuK--TFJjU0DLAUo9s5h-100" value="" style="rounded=0;whiteSpace=wrap;html=1;fontSize=14;" vertex="1" parent="1">
          <mxGeometry x="243" y="1694" width="112" height="46" as="geometry" />
        </mxCell>
        <mxCell id="TuK--TFJjU0DLAUo9s5h-101" value="&lt;div style=&quot;text-align: left;&quot;&gt;&lt;span style=&quot;font-size: 14px;&quot;&gt;0x1c1d1197810&lt;/span&gt;&lt;/div&gt;" style="text;html=1;align=center;verticalAlign=middle;whiteSpace=wrap;rounded=0;" vertex="1" parent="1">
          <mxGeometry x="249" y="1702" width="100" height="30" as="geometry" />
        </mxCell>
        <mxCell id="TuK--TFJjU0DLAUo9s5h-102" value="&lt;span style=&quot;font-size: 14px;&quot;&gt;0x78a27ff9b0&lt;/span&gt;" style="text;html=1;align=left;verticalAlign=middle;whiteSpace=wrap;rounded=0;" vertex="1" parent="1">
          <mxGeometry x="365" y="1702" width="88" height="30" as="geometry" />
        </mxCell>
        <mxCell id="TuK--TFJjU0DLAUo9s5h-103" value="&lt;span style=&quot;font-size: 14px;&quot;&gt;*r&lt;/span&gt;" style="text;html=1;align=center;verticalAlign=middle;whiteSpace=wrap;rounded=0;" vertex="1" parent="1">
          <mxGeometry x="259" y="1664" width="60" height="30" as="geometry" />
        </mxCell>
        <mxCell id="TuK--TFJjU0DLAUo9s5h-111" style="edgeStyle=orthogonalEdgeStyle;rounded=0;orthogonalLoop=1;jettySize=auto;html=1;exitX=0;exitY=0.25;exitDx=0;exitDy=0;" edge="1" parent="1" source="TuK--TFJjU0DLAUo9s5h-104">
          <mxGeometry relative="1" as="geometry">
            <mxPoint x="305" y="1596" as="targetPoint" />
          </mxGeometry>
        </mxCell>
        <mxCell id="TuK--TFJjU0DLAUo9s5h-104" value="" style="rounded=0;whiteSpace=wrap;html=1;fontSize=14;" vertex="1" parent="1">
          <mxGeometry x="431" y="1625" width="112" height="46" as="geometry" />
        </mxCell>
        <mxCell id="TuK--TFJjU0DLAUo9s5h-105" value="&lt;div style=&quot;text-align: left;&quot;&gt;&lt;span style=&quot;font-size: 14px;&quot;&gt;0x1c1d1197810&lt;/span&gt;&lt;/div&gt;" style="text;html=1;align=center;verticalAlign=middle;whiteSpace=wrap;rounded=0;" vertex="1" parent="1">
          <mxGeometry x="437" y="1633" width="100" height="30" as="geometry" />
        </mxCell>
        <mxCell id="TuK--TFJjU0DLAUo9s5h-106" value="&lt;span style=&quot;font-size: 14px;&quot;&gt;*s&lt;/span&gt;" style="text;html=1;align=center;verticalAlign=middle;whiteSpace=wrap;rounded=0;" vertex="1" parent="1">
          <mxGeometry x="457" y="1595" width="60" height="30" as="geometry" />
        </mxCell>
        <mxCell id="TuK--TFJjU0DLAUo9s5h-107" value="&lt;span style=&quot;font-size: 14px;&quot;&gt;0x78a27ff9a8&lt;/span&gt;" style="text;html=1;align=left;verticalAlign=middle;whiteSpace=wrap;rounded=0;" vertex="1" parent="1">
          <mxGeometry x="553" y="1633" width="88" height="30" as="geometry" />
        </mxCell>
        <mxCell id="TuK--TFJjU0DLAUo9s5h-113" value="" style="rounded=0;whiteSpace=wrap;html=1;fontSize=14;" vertex="1" parent="1">
          <mxGeometry x="237" y="2606" width="112" height="46" as="geometry" />
        </mxCell>
        <mxCell id="TuK--TFJjU0DLAUo9s5h-114" value="&lt;div style=&quot;text-align: left;&quot;&gt;&lt;span style=&quot;background-color: initial; font-size: 14px;&quot;&gt;4&lt;/span&gt;&lt;/div&gt;" style="text;html=1;align=center;verticalAlign=middle;whiteSpace=wrap;rounded=0;" vertex="1" parent="1">
          <mxGeometry x="243" y="2614" width="100" height="30" as="geometry" />
        </mxCell>
        <mxCell id="TuK--TFJjU0DLAUo9s5h-115" value="&lt;span style=&quot;font-size: 14px;&quot;&gt;new int&lt;/span&gt;" style="text;html=1;align=center;verticalAlign=middle;whiteSpace=wrap;rounded=0;" vertex="1" parent="1">
          <mxGeometry x="263" y="2576" width="60" height="30" as="geometry" />
        </mxCell>
        <mxCell id="TuK--TFJjU0DLAUo9s5h-116" value="&lt;span style=&quot;font-size: 14px;&quot;&gt;0x1c1d1197810&lt;/span&gt;" style="text;html=1;align=left;verticalAlign=middle;whiteSpace=wrap;rounded=0;" vertex="1" parent="1">
          <mxGeometry x="359" y="2614" width="88" height="30" as="geometry" />
        </mxCell>
        <mxCell id="TuK--TFJjU0DLAUo9s5h-117" style="edgeStyle=orthogonalEdgeStyle;rounded=0;orthogonalLoop=1;jettySize=auto;html=1;exitX=1;exitY=0;exitDx=0;exitDy=0;entryX=0;entryY=0.5;entryDx=0;entryDy=0;" edge="1" parent="1" source="TuK--TFJjU0DLAUo9s5h-118" target="TuK--TFJjU0DLAUo9s5h-113">
          <mxGeometry relative="1" as="geometry">
            <Array as="points">
              <mxPoint x="139" y="2674" />
              <mxPoint x="139" y="2629" />
            </Array>
          </mxGeometry>
        </mxCell>
        <mxCell id="TuK--TFJjU0DLAUo9s5h-118" value="" style="rounded=0;whiteSpace=wrap;html=1;fontSize=14;" vertex="1" parent="1">
          <mxGeometry x="55" y="2674" width="112" height="46" as="geometry" />
        </mxCell>
        <mxCell id="TuK--TFJjU0DLAUo9s5h-119" value="&lt;div style=&quot;text-align: left;&quot;&gt;&lt;span style=&quot;font-size: 14px;&quot;&gt;0x1c1d1197810&lt;/span&gt;&lt;/div&gt;" style="text;html=1;align=center;verticalAlign=middle;whiteSpace=wrap;rounded=0;" vertex="1" parent="1">
          <mxGeometry x="61" y="2682" width="100" height="30" as="geometry" />
        </mxCell>
        <mxCell id="TuK--TFJjU0DLAUo9s5h-120" value="&lt;span style=&quot;font-size: 14px;&quot;&gt;*q&lt;/span&gt;" style="text;html=1;align=center;verticalAlign=middle;whiteSpace=wrap;rounded=0;" vertex="1" parent="1">
          <mxGeometry x="81" y="2644" width="60" height="30" as="geometry" />
        </mxCell>
        <mxCell id="TuK--TFJjU0DLAUo9s5h-121" value="&lt;span style=&quot;font-size: 14px;&quot;&gt;0x78a27ff9b8&lt;/span&gt;" style="text;html=1;align=left;verticalAlign=middle;whiteSpace=wrap;rounded=0;" vertex="1" parent="1">
          <mxGeometry x="177" y="2682" width="88" height="30" as="geometry" />
        </mxCell>
        <mxCell id="TuK--TFJjU0DLAUo9s5h-122" style="edgeStyle=orthogonalEdgeStyle;rounded=0;orthogonalLoop=1;jettySize=auto;html=1;exitX=1;exitY=0;exitDx=0;exitDy=0;" edge="1" parent="1" source="TuK--TFJjU0DLAUo9s5h-123">
          <mxGeometry relative="1" as="geometry">
            <mxPoint x="295" y="2660" as="targetPoint" />
            <Array as="points">
              <mxPoint x="295" y="2758" />
            </Array>
          </mxGeometry>
        </mxCell>
        <mxCell id="TuK--TFJjU0DLAUo9s5h-123" value="" style="rounded=0;whiteSpace=wrap;html=1;fontSize=14;" vertex="1" parent="1">
          <mxGeometry x="237" y="2758" width="112" height="46" as="geometry" />
        </mxCell>
        <mxCell id="TuK--TFJjU0DLAUo9s5h-124" value="&lt;div style=&quot;text-align: left;&quot;&gt;&lt;span style=&quot;font-size: 14px;&quot;&gt;0x1c1d1197810&lt;/span&gt;&lt;/div&gt;" style="text;html=1;align=center;verticalAlign=middle;whiteSpace=wrap;rounded=0;" vertex="1" parent="1">
          <mxGeometry x="243" y="2766" width="100" height="30" as="geometry" />
        </mxCell>
        <mxCell id="TuK--TFJjU0DLAUo9s5h-125" value="&lt;span style=&quot;font-size: 14px;&quot;&gt;0x78a27ff9b0&lt;/span&gt;" style="text;html=1;align=left;verticalAlign=middle;whiteSpace=wrap;rounded=0;" vertex="1" parent="1">
          <mxGeometry x="359" y="2766" width="88" height="30" as="geometry" />
        </mxCell>
        <mxCell id="TuK--TFJjU0DLAUo9s5h-126" value="&lt;span style=&quot;font-size: 14px;&quot;&gt;*r&lt;/span&gt;" style="text;html=1;align=center;verticalAlign=middle;whiteSpace=wrap;rounded=0;" vertex="1" parent="1">
          <mxGeometry x="253" y="2728" width="60" height="30" as="geometry" />
        </mxCell>
        <mxCell id="TuK--TFJjU0DLAUo9s5h-127" style="edgeStyle=orthogonalEdgeStyle;rounded=0;orthogonalLoop=1;jettySize=auto;html=1;exitX=0;exitY=0.25;exitDx=0;exitDy=0;" edge="1" parent="1" source="TuK--TFJjU0DLAUo9s5h-128">
          <mxGeometry relative="1" as="geometry">
            <mxPoint x="299" y="2660" as="targetPoint" />
          </mxGeometry>
        </mxCell>
        <mxCell id="TuK--TFJjU0DLAUo9s5h-128" value="" style="rounded=0;whiteSpace=wrap;html=1;fontSize=14;" vertex="1" parent="1">
          <mxGeometry x="425" y="2689" width="112" height="46" as="geometry" />
        </mxCell>
        <mxCell id="TuK--TFJjU0DLAUo9s5h-129" value="&lt;div style=&quot;text-align: left;&quot;&gt;&lt;span style=&quot;font-size: 14px;&quot;&gt;0x1c1d1197810&lt;/span&gt;&lt;/div&gt;" style="text;html=1;align=center;verticalAlign=middle;whiteSpace=wrap;rounded=0;" vertex="1" parent="1">
          <mxGeometry x="431" y="2697" width="100" height="30" as="geometry" />
        </mxCell>
        <mxCell id="TuK--TFJjU0DLAUo9s5h-130" value="&lt;span style=&quot;font-size: 14px;&quot;&gt;*s&lt;/span&gt;" style="text;html=1;align=center;verticalAlign=middle;whiteSpace=wrap;rounded=0;" vertex="1" parent="1">
          <mxGeometry x="451" y="2659" width="60" height="30" as="geometry" />
        </mxCell>
        <mxCell id="TuK--TFJjU0DLAUo9s5h-131" value="&lt;span style=&quot;font-size: 14px;&quot;&gt;0x78a27ff9a8&lt;/span&gt;" style="text;html=1;align=left;verticalAlign=middle;whiteSpace=wrap;rounded=0;" vertex="1" parent="1">
          <mxGeometry x="545" y="2697" width="88" height="30" as="geometry" />
        </mxCell>
        <mxCell id="TuK--TFJjU0DLAUo9s5h-132" value="" style="rounded=0;whiteSpace=wrap;html=1;fontSize=14;" vertex="1" parent="1">
          <mxGeometry x="263" y="2424" width="84" height="46" as="geometry" />
        </mxCell>
        <mxCell id="TuK--TFJjU0DLAUo9s5h-133" value="&lt;span style=&quot;font-size: 14px;&quot;&gt;n&lt;/span&gt;" style="text;html=1;align=center;verticalAlign=middle;whiteSpace=wrap;rounded=0;" vertex="1" parent="1">
          <mxGeometry x="275" y="2394" width="60" height="30" as="geometry" />
        </mxCell>
        <mxCell id="TuK--TFJjU0DLAUo9s5h-134" value="&lt;span style=&quot;font-size: 14px;&quot;&gt;1&lt;/span&gt;" style="text;html=1;align=center;verticalAlign=middle;whiteSpace=wrap;rounded=0;" vertex="1" parent="1">
          <mxGeometry x="275" y="2432" width="60" height="30" as="geometry" />
        </mxCell>
        <mxCell id="TuK--TFJjU0DLAUo9s5h-135" value="&lt;span style=&quot;font-size: 14px;&quot;&gt;0x78a27ff9cc&lt;/span&gt;" style="text;html=1;align=left;verticalAlign=middle;whiteSpace=wrap;rounded=0;" vertex="1" parent="1">
          <mxGeometry x="357" y="2432" width="88" height="30" as="geometry" />
        </mxCell>
        <mxCell id="TuK--TFJjU0DLAUo9s5h-136" style="edgeStyle=orthogonalEdgeStyle;rounded=0;orthogonalLoop=1;jettySize=auto;html=1;exitX=1;exitY=0;exitDx=0;exitDy=0;entryX=0;entryY=0.5;entryDx=0;entryDy=0;" edge="1" parent="1" source="TuK--TFJjU0DLAUo9s5h-137" target="TuK--TFJjU0DLAUo9s5h-132">
          <mxGeometry relative="1" as="geometry">
            <Array as="points">
              <mxPoint x="151" y="2494" />
              <mxPoint x="151" y="2447" />
            </Array>
          </mxGeometry>
        </mxCell>
        <mxCell id="TuK--TFJjU0DLAUo9s5h-137" value="" style="rounded=0;whiteSpace=wrap;html=1;fontSize=14;" vertex="1" parent="1">
          <mxGeometry x="67" y="2494" width="112" height="46" as="geometry" />
        </mxCell>
        <mxCell id="TuK--TFJjU0DLAUo9s5h-138" value="&lt;span style=&quot;font-size: 14px;&quot;&gt;*p&lt;/span&gt;" style="text;html=1;align=center;verticalAlign=middle;whiteSpace=wrap;rounded=0;" vertex="1" parent="1">
          <mxGeometry x="93" y="2464" width="60" height="30" as="geometry" />
        </mxCell>
        <mxCell id="TuK--TFJjU0DLAUo9s5h-139" value="&lt;span style=&quot;font-size: 14px; text-align: left;&quot;&gt;0x78a27ff9cc&lt;/span&gt;" style="text;html=1;align=center;verticalAlign=middle;whiteSpace=wrap;rounded=0;" vertex="1" parent="1">
          <mxGeometry x="73" y="2502" width="100" height="30" as="geometry" />
        </mxCell>
        <mxCell id="TuK--TFJjU0DLAUo9s5h-140" value="&lt;span style=&quot;font-size: 14px;&quot;&gt;0x78a27ff9c0&lt;/span&gt;" style="text;html=1;align=left;verticalAlign=middle;whiteSpace=wrap;rounded=0;" vertex="1" parent="1">
          <mxGeometry x="193" y="2502" width="98" height="30" as="geometry" />
        </mxCell>
      </root>
    </mxGraphModel>
  </diagram>
</mxfile>
